<svg width="421" height="525" viewBox="0 0 421 525" fill="none" xmlns="http://www.w3.org/2000/svg">
<path d="M21 30V525H421V25H30C28.6739 25 27.4022 24.4733 26.4645 23.5356C25.5268 22.5979 25 21.3261 25 20V5C25 3.67392 24.4732 2.40216 23.5355 1.46448C22.5978 0.526796 21.3261 0 20 0H5C3.67392 0 2.40216 0.526796 1.46448 1.46448C0.526796 2.40216 0 3.67392 0 5V20C0 21.3261 0.526796 22.5979 1.46448 23.5356C2.40216 24.4733 3.67392 25 5 25H16C17.3261 25 18.5978 25.5268 19.5355 26.4645C20.4732 27.4022 21 28.6739 21 30Z" fill="#C5ACA6"/>
</svg>
