<svg width="315" height="93" viewBox="0 0 315 93" fill="none" xmlns="http://www.w3.org/2000/svg">
<path d="M190.798 41.7245C190.789 43.6863 190.006 45.5655 188.619 46.9527C187.232 48.3399 185.352 49.1229 183.39 49.131C181.429 49.1229 179.549 48.3399 178.162 46.9527C176.775 45.5655 175.992 43.6863 175.983 41.7245V39.2453C175.983 38.4234 175.657 37.6352 175.076 37.054C174.495 36.4728 173.706 36.1463 172.884 36.1463H165.837C165.015 36.1463 164.227 36.4728 163.645 37.054C163.064 37.6352 162.738 38.4234 162.738 39.2453V89.8515C162.738 90.6734 162.411 91.4616 161.83 92.0428C161.249 92.6239 160.46 92.9504 159.638 92.9504H149.182C148.36 92.9504 147.572 92.6239 146.99 92.0428C146.409 91.4616 146.083 90.6734 146.083 89.8515V37.4169C146.083 36.595 146.409 35.8068 146.99 35.2256C147.572 34.6444 148.36 34.318 149.182 34.318H156.725C157.547 34.318 158.335 33.9915 158.917 33.4103C159.498 32.8291 159.824 32.0409 159.824 31.219V22.6349C159.824 21.813 160.151 21.0247 160.732 20.4436C161.313 19.8624 162.102 19.5359 162.924 19.5359H173.386C174.208 19.5359 174.997 19.8624 175.578 20.4436C176.159 21.0247 176.486 21.813 176.486 22.6349V31.2438C176.486 32.0657 176.812 32.8539 177.393 33.4351C177.974 34.0163 178.763 34.3428 179.585 34.3428H183.39C185.348 34.3509 187.224 35.1304 188.61 36.5123C189.997 37.8942 190.783 39.767 190.798 41.7245ZM307.618 49.131C309.575 49.1164 311.448 48.3305 312.83 46.944C314.212 45.5575 314.992 43.682 315 41.7245C314.992 39.7627 314.209 37.8835 312.822 36.4963C311.434 35.1091 309.555 34.3261 307.593 34.318H305.163C304.341 34.318 303.553 33.9915 302.972 33.4103C302.391 32.8291 302.064 32.0409 302.064 31.219V22.6349C302.064 21.813 301.738 21.0247 301.156 20.4436C300.575 19.8624 299.787 19.5359 298.965 19.5359H266.176C265.354 19.5359 264.565 19.8624 263.984 20.4436C263.403 21.0247 263.076 21.813 263.076 22.6349V31.2438C263.076 32.0657 262.75 32.8539 262.169 33.4351C261.588 34.0163 260.799 34.3428 259.977 34.3428H253.233C252.412 34.3428 251.623 34.6692 251.042 35.2504C250.461 35.8316 250.134 36.6198 250.134 37.4417V47.6311C250.134 48.453 250.461 49.2413 251.042 49.8224C251.623 50.4036 252.412 50.7301 253.233 50.7301H259.977C260.799 50.7301 261.588 51.0566 262.169 51.6378C262.75 52.2189 263.076 53.0072 263.076 53.829V60.5724C263.076 61.3943 263.403 62.1825 263.984 62.7637C264.565 63.3449 265.354 63.6714 266.176 63.6714H297.112C297.934 63.6714 298.722 63.9979 299.303 64.579C299.884 65.1602 300.211 65.9484 300.211 66.7703V75.088C300.211 75.9099 299.884 76.6981 299.303 77.2793C298.722 77.8604 297.934 78.1869 297.112 78.1869H268.048C267.226 78.1869 266.437 77.8604 265.856 77.2793C265.275 76.6981 264.948 75.9099 264.948 75.088V70.9787C264.967 68.9834 264.195 67.0619 262.801 65.6336C261.408 64.2053 259.506 63.3863 257.51 63.3553C255.549 63.3634 253.671 64.1455 252.284 65.5314C250.897 66.9173 250.113 68.7949 250.103 70.7556C250.134 72.7519 250.954 74.6547 252.384 76.0483C253.814 77.4419 255.737 78.213 257.733 78.1931H259.946C260.768 78.1931 261.557 78.5196 262.138 79.1008C262.719 79.682 263.045 80.4702 263.045 81.2921V89.901C263.045 90.7229 263.372 91.5112 263.953 92.0923C264.534 92.6735 265.323 93 266.145 93H298.959C299.781 93 300.569 92.6735 301.15 92.0923C301.731 91.5112 302.058 90.7229 302.058 89.901V81.2611C302.058 80.4392 302.384 79.651 302.966 79.0698C303.547 78.4887 304.335 78.1621 305.157 78.1621H311.901C312.723 78.1621 313.511 77.8356 314.092 77.2545C314.673 76.6733 315 75.8851 315 75.0632V64.8738C315 64.0519 314.673 63.2636 314.092 62.6825C313.511 62.1013 312.723 61.7748 311.901 61.7748H305.188C304.366 61.7748 303.578 61.4483 302.997 60.8672C302.415 60.286 302.089 59.4977 302.089 58.6758V51.9325C302.089 51.1106 301.762 50.3224 301.181 49.7412C300.6 49.16 299.812 48.8335 298.99 48.8335H268.048C267.226 48.8335 266.437 48.507 265.856 47.9259C265.275 47.3447 264.948 46.5564 264.948 45.7345V37.4169C264.948 36.595 265.275 35.8068 265.856 35.2256C266.437 34.6444 267.226 34.318 268.048 34.318H297.112C297.934 34.318 298.722 34.6444 299.303 35.2256C299.884 35.8068 300.211 36.595 300.211 37.4169V41.7245C300.219 43.6863 301.002 45.5655 302.389 46.9527C303.777 48.3399 305.656 49.1229 307.618 49.131ZM230.907 11.4104C230.905 9.26303 230.051 7.20417 228.532 5.68633C227.013 4.1685 224.953 3.31588 222.806 3.31588C220.659 3.31588 218.6 4.1687 217.082 5.68671C215.564 7.20472 214.711 9.2636 214.711 11.4104C214.708 12.4758 214.914 13.5313 215.32 14.5166C215.725 15.5019 216.321 16.3975 217.073 17.1523C217.825 17.9071 218.718 18.5061 219.702 18.9151C220.686 19.3241 221.74 19.5351 222.806 19.5359C223.872 19.5359 224.927 19.3255 225.912 18.9169C226.896 18.5082 227.79 17.9093 228.543 17.1545C229.296 16.3996 229.892 15.5037 230.298 14.518C230.703 13.5323 230.91 12.4763 230.907 11.4104ZM214.481 89.8701V81.2611C214.481 80.4392 214.155 79.651 213.574 79.0698C212.992 78.4887 212.204 78.1621 211.382 78.1621H196.24C195.418 78.1621 194.629 78.4887 194.048 79.0698C193.467 79.651 193.14 80.4392 193.14 81.2611V89.8701C193.14 90.692 193.467 91.4802 194.048 92.0613C194.629 92.6425 195.418 92.969 196.24 92.969H211.382C212.204 92.969 212.992 92.6425 213.574 92.0613C214.155 91.4802 214.481 90.692 214.481 89.8701ZM249.378 78.1621H234.236C233.414 78.1621 232.625 77.8356 232.044 77.2545C231.463 76.6733 231.136 75.8851 231.136 75.0632V36.0162C231.136 35.1943 230.81 34.4061 230.229 33.8249C229.647 33.2437 228.859 32.9172 228.037 32.9172H217.581C216.759 32.9172 215.97 32.5907 215.389 32.0095C214.808 31.4284 214.481 30.6402 214.481 29.8183V22.6349C214.481 21.813 214.155 21.0247 213.574 20.4436C212.992 19.8624 212.204 19.5359 211.382 19.5359H196.24C195.418 19.5359 194.629 19.8624 194.048 20.4436C193.467 21.0247 193.14 21.813 193.14 22.6349V31.2438C193.14 32.0657 193.467 32.8539 194.048 33.4351C194.629 34.0163 195.418 34.3428 196.24 34.3428H211.382C212.204 34.3428 212.992 34.6692 213.574 35.2504C214.155 35.8316 214.481 36.6198 214.481 37.4417V76.9597C214.481 77.7816 214.808 78.5699 215.389 79.1511C215.97 79.7322 216.759 80.0587 217.581 80.0587H228.037C228.859 80.0587 229.647 80.3852 230.229 80.9664C230.81 81.5476 231.136 82.3358 231.136 83.1577V89.8948C231.136 90.7167 231.463 91.505 232.044 92.0861C232.625 92.6673 233.414 92.9938 234.236 92.9938H249.378C250.2 92.9938 250.988 92.6673 251.57 92.0861C252.151 91.505 252.477 90.7167 252.477 89.8948V81.2611C252.477 80.4392 252.151 79.651 251.57 79.0698C250.988 78.4887 250.2 78.1621 249.378 78.1621ZM56.9194 39.1462H65.5351C66.3571 39.1462 67.1454 38.8197 67.7266 38.2385C68.3078 37.6573 68.6343 36.8691 68.6343 36.0472V17.912C68.6343 17.0901 68.3078 16.3019 67.7266 15.7207C67.1454 15.1395 66.3571 14.8131 65.5351 14.8131H56.9194C56.0975 14.8131 55.3092 14.4866 54.728 13.9054C54.1468 13.3242 53.8202 12.536 53.8202 11.7141V3.09897C53.8202 2.27707 53.4937 1.48882 52.9125 0.907655C52.3313 0.326486 51.543 0 50.7211 0H3.09917C2.27722 0 1.48893 0.326486 0.907725 0.907655C0.326517 1.48882 0 2.27707 0 3.09897V37.8074C0 38.6293 0.326517 39.4175 0.907725 39.9987C1.48893 40.5799 2.27722 40.9064 3.09917 40.9064H11.7149C12.5368 40.9064 13.3251 41.2329 13.9063 41.814C14.4875 42.3952 14.814 43.1834 14.814 44.0053V46.2924C14.814 50.3086 18.0868 53.9034 22.0971 53.9654C23.0786 53.9769 24.0526 53.794 24.963 53.4273C25.8734 53.0606 26.7023 52.5173 27.4018 51.8288C28.1013 51.1403 28.6576 50.3202 29.0386 49.4157C29.4196 48.5113 29.6179 47.5403 29.6219 46.5589C29.6219 45.5839 29.4293 44.6186 29.055 43.7183C28.6808 42.818 28.1323 42.0005 27.4411 41.3129C26.7499 40.6252 25.9297 40.0809 25.0275 39.7112C24.1253 39.3414 23.1589 39.1536 22.1839 39.1585H17.9132C17.0913 39.1585 16.303 38.832 15.7218 38.2509C15.1406 37.6697 14.814 36.8815 14.814 36.0596V17.912C14.814 17.0901 15.1406 16.3019 15.7218 15.7207C16.303 15.1395 17.0913 14.8131 17.9132 14.8131H48.8492C49.6711 14.8131 50.4594 15.1395 51.0406 15.7207C51.6218 16.3019 51.9483 17.0901 51.9483 17.912V36.0472C51.9483 36.8691 51.6218 37.6573 51.0406 38.2385C50.4594 38.8197 49.6711 39.1462 48.8492 39.1462H37.4132C36.5913 39.1462 35.803 39.4726 35.2218 40.0538C34.6406 40.635 34.3141 41.4232 34.3141 42.2451V50.854C34.3141 51.6759 34.6406 52.4642 35.2218 53.0453C35.803 53.6265 36.5913 53.953 37.4132 53.953H48.8492C49.6711 53.953 50.4594 54.2795 51.0406 54.8607C51.6218 55.4419 51.9483 56.2301 51.9483 57.052V75.057C51.9483 75.8789 51.6218 76.6671 51.0406 77.2483C50.4594 77.8295 49.6711 78.1559 48.8492 78.1559H17.9132C17.0913 78.1559 16.303 77.8295 15.7218 77.2483C15.1406 76.6671 14.814 75.8789 14.814 75.057V55.8806C14.814 55.0587 14.4875 54.2704 13.9063 53.6893C13.3251 53.1081 12.5368 52.7816 11.7149 52.7816H3.09917C2.27722 52.7816 1.48893 53.1081 0.907725 53.6893C0.326517 54.2704 0 55.0587 0 55.8806V89.8701C0 90.692 0.326517 91.4802 0.907725 92.0613C1.48893 92.6425 2.27722 92.969 3.09917 92.969H50.7211C51.543 92.969 52.3313 92.6425 52.9125 92.0613C53.4937 91.4802 53.8202 90.692 53.8202 89.8701V81.2611C53.8202 80.4392 54.1468 79.651 54.728 79.0698C55.3092 78.4887 56.0975 78.1621 56.9194 78.1621H65.5351C66.3571 78.1621 67.1454 77.8356 67.7266 77.2545C68.3078 76.6733 68.6343 75.8851 68.6343 75.0632V57.052C68.6343 56.2301 68.3078 55.4419 67.7266 54.8607C67.1454 54.2795 66.3571 53.953 65.5351 53.953H56.9194C56.0975 53.953 55.3092 53.6265 54.728 53.0453C54.1468 52.4642 53.8202 51.6759 53.8202 50.854V42.2451C53.8202 41.4232 54.1468 40.635 54.728 40.0538C55.3092 39.4726 56.0975 39.1462 56.9194 39.1462ZM136.717 37.4169V75.0632C136.717 75.4701 136.637 75.8731 136.481 76.2491C136.325 76.6251 136.097 76.9667 135.809 77.2545C135.521 77.5422 135.18 77.7705 134.804 77.9263C134.428 78.082 134.025 78.1621 133.618 78.1621H125.039C124.629 78.1621 124.222 78.2437 123.843 78.4021C123.464 78.5606 123.121 78.7927 122.832 79.0851C122.544 79.3775 122.317 79.7242 122.163 80.1052C122.01 80.4862 121.934 80.8939 121.94 81.3045L122.083 90.6014C122.083 91.2228 121.836 91.8187 121.396 92.258C120.957 92.6974 120.361 92.9442 119.74 92.9442H95.3306C94.7092 92.9442 94.1132 92.6974 93.6738 92.258C93.2344 91.8187 92.9876 91.2228 92.9876 90.6014L92.8574 81.1929C92.846 80.3786 92.5145 79.6014 91.9345 79.0296C91.3545 78.4578 90.5727 78.1373 89.7583 78.1373H81.0806C80.2586 78.1373 79.4703 77.8109 78.8891 77.2297C78.3079 76.6485 77.9814 75.8603 77.9814 75.0384V37.4169C77.9814 36.595 78.3079 35.8068 78.8891 35.2256C79.4703 34.6444 80.2586 34.318 81.0806 34.318H89.8327C90.2433 34.318 90.6499 34.2364 91.0288 34.078C91.4076 33.9195 91.7512 33.6874 92.0396 33.395C92.3279 33.1026 92.5553 32.7559 92.7085 32.3749C92.8617 31.9939 92.9376 31.5862 92.9318 31.1756L92.7955 21.8787C92.7955 21.2573 93.0423 20.6614 93.4817 20.2221C93.9211 19.7827 94.517 19.5359 95.1384 19.5359H119.566C119.874 19.5359 120.178 19.5965 120.462 19.7143C120.746 19.8322 121.004 20.0048 121.221 20.2224C121.438 20.4401 121.61 20.6984 121.727 20.9826C121.844 21.2668 121.904 21.5713 121.903 21.8787L122.039 31.2872C122.051 32.1015 122.382 32.8787 122.962 33.4505C123.542 34.0223 124.324 34.3428 125.138 34.3428H133.618C134.435 34.3427 135.22 34.6658 135.801 35.2416C136.381 35.8175 136.71 36.5993 136.717 37.4169ZM124.37 56.2401C124.37 44.1355 116.752 34.318 107.362 34.318C97.9711 34.318 90.3471 44.1355 90.3471 56.2401C90.3471 68.3446 97.9649 78.1621 107.362 78.1621C116.758 78.1621 124.37 68.3446 124.37 56.2401Z" fill="#0D0E0F"/>
</svg>
