<svg width="509" height="151" viewBox="0 0 509 151" fill="none" xmlns="http://www.w3.org/2000/svg">
<path d="M307.82 67.32C307.807 70.4853 306.544 73.5172 304.305 75.7554C302.067 77.9936 299.035 79.2568 295.87 79.27C292.705 79.2568 289.673 77.9936 287.435 75.7554C285.196 73.5172 283.933 70.4853 283.92 67.32V63.32C283.92 61.9939 283.393 60.7221 282.456 59.7845C281.518 58.8468 280.246 58.32 278.92 58.32H267.55C266.224 58.32 264.952 58.8468 264.014 59.7845C263.077 60.7221 262.55 61.9939 262.55 63.32V144.97C262.55 146.296 262.023 147.568 261.086 148.506C260.148 149.443 258.876 149.97 257.55 149.97H240.68C239.354 149.97 238.082 149.443 237.144 148.506C236.207 147.568 235.68 146.296 235.68 144.97V60.37C235.68 59.0439 236.207 57.7721 237.144 56.8344C238.082 55.8968 239.354 55.37 240.68 55.37H252.85C254.176 55.37 255.448 54.8432 256.386 53.9055C257.323 52.9678 257.85 51.6961 257.85 50.37V36.52C257.85 35.1939 258.377 33.9221 259.314 32.9845C260.252 32.0468 261.524 31.52 262.85 31.52H279.73C281.056 31.52 282.328 32.0468 283.266 32.9845C284.203 33.9221 284.73 35.1939 284.73 36.52V50.41C284.73 51.7361 285.257 53.0078 286.194 53.9455C287.132 54.8832 288.404 55.41 289.73 55.41H295.87C299.028 55.4231 302.054 56.6808 304.291 58.9104C306.528 61.14 307.796 64.1616 307.82 67.32ZM496.29 79.27C499.448 79.2463 502.47 77.9784 504.7 75.7414C506.929 73.5043 508.187 70.4784 508.2 67.32C508.187 64.1547 506.924 61.1228 504.685 58.8846C502.447 56.6464 499.415 55.3832 496.25 55.37H492.33C491.004 55.37 489.732 54.8432 488.794 53.9055C487.857 52.9678 487.33 51.6961 487.33 50.37V36.52C487.33 35.1939 486.803 33.9221 485.866 32.9845C484.928 32.0468 483.656 31.52 482.33 31.52H429.43C428.104 31.52 426.832 32.0468 425.894 32.9845C424.957 33.9221 424.43 35.1939 424.43 36.52V50.41C424.43 51.7361 423.903 53.0078 422.966 53.9455C422.028 54.8832 420.756 55.41 419.43 55.41H408.55C407.224 55.41 405.952 55.9368 405.014 56.8745C404.077 57.8121 403.55 59.0839 403.55 60.41V76.85C403.55 78.1761 404.077 79.4478 405.014 80.3855C405.952 81.3232 407.224 81.85 408.55 81.85H419.43C420.756 81.85 422.028 82.3768 422.966 83.3145C423.903 84.2521 424.43 85.5239 424.43 86.85V97.73C424.43 99.0561 424.957 100.328 425.894 101.266C426.832 102.203 428.104 102.73 429.43 102.73H479.34C480.666 102.73 481.938 103.257 482.876 104.194C483.813 105.132 484.34 106.404 484.34 107.73V121.15C484.34 122.476 483.813 123.748 482.876 124.686C481.938 125.623 480.666 126.15 479.34 126.15H432.45C431.124 126.15 429.852 125.623 428.914 124.686C427.977 123.748 427.45 122.476 427.45 121.15V114.52C427.479 111.301 426.234 108.2 423.986 105.896C421.738 103.591 418.669 102.27 415.45 102.22C412.286 102.233 409.256 103.495 407.018 105.731C404.78 107.967 403.516 110.996 403.5 114.16C403.55 117.381 404.873 120.451 407.18 122.699C409.486 124.948 412.589 126.192 415.81 126.16H419.38C420.706 126.16 421.978 126.687 422.916 127.624C423.853 128.562 424.38 129.834 424.38 131.16V145.05C424.38 146.376 424.907 147.648 425.844 148.586C426.782 149.523 428.054 150.05 429.38 150.05H482.32C483.646 150.05 484.918 149.523 485.856 148.586C486.793 147.648 487.32 146.376 487.32 145.05V131.11C487.32 129.784 487.847 128.512 488.784 127.574C489.722 126.637 490.994 126.11 492.32 126.11H503.2C504.526 126.11 505.798 125.583 506.736 124.646C507.673 123.708 508.2 122.436 508.2 121.11V104.67C508.2 103.344 507.673 102.072 506.736 101.134C505.798 100.197 504.526 99.67 503.2 99.67H492.37C491.044 99.67 489.772 99.1432 488.834 98.2055C487.897 97.2679 487.37 95.9961 487.37 94.67V83.79C487.37 82.4639 486.843 81.1921 485.906 80.2545C484.968 79.3168 483.696 78.79 482.37 78.79H432.45C431.124 78.79 429.852 78.2632 428.914 77.3255C427.977 76.3878 427.45 75.1161 427.45 73.79V60.37C427.45 59.0439 427.977 57.7721 428.914 56.8344C429.852 55.8968 431.124 55.37 432.45 55.37H479.34C480.666 55.37 481.938 55.8968 482.876 56.8344C483.813 57.7721 484.34 59.0439 484.34 60.37V67.32C484.353 70.4853 485.616 73.5172 487.855 75.7554C490.093 77.9936 493.125 79.2568 496.29 79.27ZM372.53 18.41C372.527 14.9454 371.149 11.6235 368.698 9.17456C366.248 6.72562 362.925 5.34997 359.46 5.34998C355.996 5.34998 352.674 6.72595 350.225 9.17517C347.776 11.6244 346.4 14.9463 346.4 18.41C346.395 20.1289 346.729 21.8319 347.382 23.4216C348.036 25.0113 348.997 26.4564 350.21 27.6742C351.424 28.892 352.865 29.8585 354.452 30.5184C356.039 31.1783 357.741 31.5187 359.46 31.52C361.18 31.52 362.883 31.1806 364.471 30.5213C366.059 29.8619 367.502 28.8956 368.716 27.6777C369.93 26.4598 370.892 25.0143 371.547 23.424C372.201 21.8336 372.535 20.1297 372.53 18.41ZM346.03 145V131.11C346.03 129.784 345.503 128.512 344.566 127.574C343.628 126.637 342.356 126.11 341.03 126.11H316.6C315.274 126.11 314.002 126.637 313.064 127.574C312.127 128.512 311.6 129.784 311.6 131.11V145C311.6 146.326 312.127 147.598 313.064 148.536C314.002 149.473 315.274 150 316.6 150H341.03C342.356 150 343.628 149.473 344.566 148.536C345.503 147.598 346.03 146.326 346.03 145ZM402.33 126.11H377.9C376.574 126.11 375.302 125.583 374.365 124.646C373.427 123.708 372.9 122.436 372.9 121.11V58.11C372.9 56.7839 372.373 55.5121 371.436 54.5745C370.498 53.6368 369.226 53.11 367.9 53.11H351.03C349.704 53.11 348.432 52.5832 347.495 51.6455C346.557 50.7078 346.03 49.4361 346.03 48.11V36.52C346.03 35.1939 345.503 33.9221 344.566 32.9845C343.628 32.0468 342.356 31.52 341.03 31.52H316.6C315.274 31.52 314.002 32.0468 313.064 32.9845C312.127 33.9221 311.6 35.1939 311.6 36.52V50.41C311.6 51.7361 312.127 53.0078 313.064 53.9455C314.002 54.8832 315.274 55.41 316.6 55.41H341.03C342.356 55.41 343.628 55.9368 344.566 56.8745C345.503 57.8121 346.03 59.0839 346.03 60.41V124.17C346.03 125.496 346.557 126.768 347.495 127.706C348.432 128.643 349.704 129.17 351.03 129.17H367.9C369.226 129.17 370.498 129.697 371.436 130.634C372.373 131.572 372.9 132.844 372.9 134.17V145.04C372.9 146.366 373.427 147.638 374.365 148.576C375.302 149.513 376.574 150.04 377.9 150.04H402.33C403.656 150.04 404.928 149.513 405.866 148.576C406.803 147.638 407.33 146.366 407.33 145.04V131.11C407.33 129.784 406.803 128.512 405.866 127.574C404.928 126.637 403.656 126.11 402.33 126.11ZM91.83 63.16H105.73C107.056 63.16 108.328 62.6332 109.266 61.6955C110.203 60.7578 110.73 59.4861 110.73 58.16V28.9C110.73 27.5739 110.203 26.3021 109.266 25.3644C108.328 24.4268 107.056 23.9 105.73 23.9H91.83C90.5039 23.9 89.2321 23.3732 88.2945 22.4355C87.3568 21.4978 86.83 20.2261 86.83 18.9V5C86.83 3.67392 86.3032 2.40213 85.3655 1.46445C84.4278 0.526765 83.1561 0 81.83 0H5C3.67392 0 2.40214 0.526765 1.46446 1.46445C0.52678 2.40213 0 3.67392 0 5V61C0 62.3261 0.52678 63.5978 1.46446 64.5355C2.40214 65.4732 3.67392 66 5 66H18.9C20.2261 66 21.4979 66.5268 22.4355 67.4644C23.3732 68.4021 23.9 69.6739 23.9 71V74.69C23.9 81.17 29.18 86.97 35.65 87.07C37.2334 87.0885 38.8048 86.7934 40.2736 86.2018C41.7425 85.6101 43.0797 84.7336 44.2082 83.6227C45.3367 82.5119 46.2342 81.1887 46.8489 79.7294C47.4637 78.2701 47.7835 76.7035 47.79 75.12C47.79 73.547 47.4792 71.9894 46.8754 70.5368C46.2716 69.0843 45.3868 67.7654 44.2717 66.6559C43.1566 65.5463 41.8332 64.6681 40.3777 64.0716C38.9221 63.4751 37.363 63.1721 35.79 63.18H28.9C27.5739 63.18 26.3021 62.6532 25.3645 61.7155C24.4268 60.7778 23.9 59.5061 23.9 58.18V28.9C23.9 27.5739 24.4268 26.3021 25.3645 25.3644C26.3021 24.4268 27.5739 23.9 28.9 23.9H78.81C80.1361 23.9 81.4079 24.4268 82.3455 25.3644C83.2832 26.3021 83.81 27.5739 83.81 28.9V58.16C83.81 59.4861 83.2832 60.7578 82.3455 61.6955C81.4079 62.6332 80.1361 63.16 78.81 63.16H60.36C59.0339 63.16 57.7621 63.6868 56.8245 64.6245C55.8868 65.5621 55.36 66.8339 55.36 68.16V82.05C55.36 83.3761 55.8868 84.6478 56.8245 85.5855C57.7621 86.5232 59.0339 87.05 60.36 87.05H78.81C80.1361 87.05 81.4079 87.5768 82.3455 88.5145C83.2832 89.4521 83.81 90.7239 83.81 92.05V121.1C83.81 122.426 83.2832 123.698 82.3455 124.636C81.4079 125.573 80.1361 126.1 78.81 126.1H28.9C27.5739 126.1 26.3021 125.573 25.3645 124.636C24.4268 123.698 23.9 122.426 23.9 121.1V90.16C23.9 88.8339 23.3732 87.5621 22.4355 86.6245C21.4979 85.6868 20.2261 85.16 18.9 85.16H5C3.67392 85.16 2.40214 85.6868 1.46446 86.6245C0.52678 87.5621 0 88.8339 0 90.16V145C0 146.326 0.52678 147.598 1.46446 148.536C2.40214 149.473 3.67392 150 5 150H81.83C83.1561 150 84.4278 149.473 85.3655 148.536C86.3032 147.598 86.83 146.326 86.83 145V131.11C86.83 129.784 87.3568 128.512 88.2945 127.574C89.2321 126.637 90.5039 126.11 91.83 126.11H105.73C107.056 126.11 108.328 125.583 109.266 124.646C110.203 123.708 110.73 122.436 110.73 121.11V92.05C110.73 90.7239 110.203 89.4521 109.266 88.5145C108.328 87.5768 107.056 87.05 105.73 87.05H91.83C90.5039 87.05 89.2321 86.5232 88.2945 85.5855C87.3568 84.6478 86.83 83.3761 86.83 82.05V68.16C86.83 66.8339 87.3568 65.5621 88.2945 64.6245C89.2321 63.6868 90.5039 63.16 91.83 63.16ZM220.57 60.37V121.11C220.57 121.767 220.441 122.417 220.189 123.023C219.938 123.63 219.57 124.181 219.106 124.646C218.641 125.11 218.09 125.478 217.483 125.729C216.877 125.981 216.227 126.11 215.57 126.11H201.73C201.067 126.11 200.412 126.242 199.8 126.497C199.189 126.753 198.635 127.127 198.169 127.599C197.704 128.071 197.337 128.63 197.09 129.245C196.843 129.86 196.721 130.518 196.73 131.18L196.96 146.18C196.96 147.183 196.562 148.144 195.853 148.853C195.144 149.562 194.183 149.96 193.18 149.96H153.8C152.797 149.96 151.836 149.562 151.127 148.853C150.418 148.144 150.02 147.183 150.02 146.18L149.81 131C149.792 129.686 149.257 128.432 148.321 127.51C147.385 126.587 146.124 126.07 144.81 126.07H130.81C129.484 126.07 128.212 125.543 127.274 124.606C126.337 123.668 125.81 122.396 125.81 121.07V60.37C125.81 59.0439 126.337 57.7721 127.274 56.8344C128.212 55.8968 129.484 55.37 130.81 55.37H144.93C145.593 55.3701 146.248 55.2384 146.86 54.9828C147.471 54.7271 148.025 54.3526 148.491 53.8809C148.956 53.4091 149.323 52.8497 149.57 52.2349C149.817 51.6202 149.939 50.9625 149.93 50.3L149.71 35.3C149.71 34.2975 150.108 33.336 150.817 32.6271C151.526 31.9182 152.487 31.52 153.49 31.52H192.9C193.396 31.52 193.887 31.6178 194.345 31.8079C194.803 31.998 195.219 32.2766 195.569 32.6277C195.92 32.9789 196.197 33.3956 196.386 33.8542C196.575 34.3127 196.671 34.8041 196.67 35.3L196.89 50.48C196.908 51.7939 197.443 53.0478 198.379 53.9704C199.315 54.893 200.576 55.4101 201.89 55.41H215.57C216.889 55.41 218.155 55.9312 219.091 56.8603C220.028 57.7893 220.559 59.0509 220.57 60.37ZM200.65 90.74C200.65 71.21 188.36 55.37 173.21 55.37C158.06 55.37 145.76 71.21 145.76 90.74C145.76 110.27 158.05 126.11 173.21 126.11C188.37 126.11 200.65 110.27 200.65 90.74Z" fill="#F7F3B2"/>
</svg>
