<svg width="15" height="20" viewBox="0 0 15 20" fill="none" xmlns="http://www.w3.org/2000/svg">
<path d="M12.244 8.42133H14.0973C14.2741 8.42133 14.4437 8.35109 14.5687 8.22607C14.6938 8.10105 14.764 7.93148 14.764 7.75467V3.85333C14.764 3.67652 14.6938 3.50695 14.5687 3.38193C14.4437 3.2569 14.2741 3.18667 14.0973 3.18667H12.244C12.0672 3.18667 11.8976 3.11643 11.7726 2.9914C11.6476 2.86638 11.5773 2.69681 11.5773 2.52V0.666667C11.5773 0.489856 11.5071 0.320284 11.3821 0.19526C11.257 0.0702354 11.0875 0 10.9107 0H0.666667C0.489856 0 0.320286 0.0702354 0.195262 0.19526C0.0702374 0.320284 0 0.489856 0 0.666667V8.13333C0 8.31014 0.0702374 8.47971 0.195262 8.60474C0.320286 8.72976 0.489856 8.8 0.666667 8.8H2.52C2.69681 8.8 2.86638 8.87024 2.9914 8.99526C3.11643 9.12028 3.18667 9.28986 3.18667 9.46667V9.95867C3.18667 10.8227 3.89067 11.596 4.75333 11.6093C4.96445 11.6118 5.17397 11.5725 5.36982 11.4936C5.56566 11.4147 5.74396 11.2978 5.89443 11.1497C6.04489 11.0016 6.16456 10.8252 6.24653 10.6306C6.32849 10.436 6.37113 10.2271 6.372 10.016C6.372 9.80626 6.33056 9.59859 6.25006 9.40491C6.16955 9.21124 6.05157 9.03538 5.90289 8.88745C5.75421 8.73951 5.57776 8.62241 5.38369 8.54288C5.18961 8.46335 4.98174 8.42295 4.772 8.424H3.85333C3.67652 8.424 3.50695 8.35376 3.38193 8.22874C3.2569 8.10371 3.18667 7.93414 3.18667 7.75733V3.85333C3.18667 3.67652 3.2569 3.50695 3.38193 3.38193C3.50695 3.2569 3.67652 3.18667 3.85333 3.18667H10.508C10.6848 3.18667 10.8544 3.2569 10.9794 3.38193C11.1044 3.50695 11.1747 3.67652 11.1747 3.85333V7.75467C11.1747 7.93148 11.1044 8.10105 10.9794 8.22607C10.8544 8.35109 10.6848 8.42133 10.508 8.42133H8.048C7.87119 8.42133 7.70162 8.49157 7.5766 8.61659C7.45157 8.74162 7.38133 8.91119 7.38133 9.088V10.94C7.38133 11.1168 7.45157 11.2864 7.5766 11.4114C7.70162 11.5364 7.87119 11.6067 8.048 11.6067H10.508C10.6848 11.6067 10.8544 11.6769 10.9794 11.8019C11.1044 11.927 11.1747 12.0965 11.1747 12.2733V16.1467C11.1747 16.3235 11.1044 16.493 10.9794 16.6181C10.8544 16.7431 10.6848 16.8133 10.508 16.8133H3.85333C3.67652 16.8133 3.50695 16.7431 3.38193 16.6181C3.2569 16.493 3.18667 16.3235 3.18667 16.1467V12.0213C3.18667 11.8445 3.11643 11.675 2.9914 11.5499C2.86638 11.4249 2.69681 11.3547 2.52 11.3547H0.666667C0.489856 11.3547 0.320286 11.4249 0.195262 11.5499C0.0702374 11.675 0 11.8445 0 12.0213V19.3333C0 19.5101 0.0702374 19.6797 0.195262 19.8047C0.320286 19.9298 0.489856 20 0.666667 20H10.9107C11.0875 20 11.257 19.9298 11.3821 19.8047C11.5071 19.6797 11.5773 19.5101 11.5773 19.3333V17.4813C11.5773 17.3045 11.6476 17.135 11.7726 17.0099C11.8976 16.8849 12.0672 16.8147 12.244 16.8147H14.0973C14.2741 16.8147 14.4437 16.7444 14.5687 16.6194C14.6938 16.4944 14.764 16.3248 14.764 16.148V12.2733C14.764 12.0965 14.6938 11.927 14.5687 11.8019C14.4437 11.6769 14.2741 11.6067 14.0973 11.6067H12.244C12.0672 11.6067 11.8976 11.5364 11.7726 11.4114C11.6476 11.2864 11.5773 11.1168 11.5773 10.94V9.088C11.5773 8.91119 11.6476 8.74162 11.7726 8.61659C11.8976 8.49157 12.0672 8.42133 12.244 8.42133Z" fill="#F7F3B2"/>
</svg>
